<?xml version="1.0" encoding="utf-8"?>
<!-- Generator: Adobe Illustrator 25.4.1, SVG Export Plug-In . SVG Version: 6.00 Build 0)  -->
<svg version="1.1" id="Capa_1" xmlns="http://www.w3.org/2000/svg" xmlns:xlink="http://www.w3.org/1999/xlink" x="0px" y="0px"
	 viewBox="0 0 470 470" style="enable-background:new 0 0 470 470;" xml:space="preserve">
<style type="text/css">
	.st0{fill:#FFFFFF;}
	.st1{display:none;fill:#FFFFFF;}
</style>
<g>
	<path class="st0" d="M432.5,70h-100V22.5C332.5,10.1,322.4,0,310,0H160c-12.4,0-22.5,10.1-22.5,22.5V70h-100
		C16.8,70,0,86.8,0,107.5v112.8c0,3.1,1.9,5.9,4.9,7c2.2,0.8,4.4,1.6,6.6,2.4v202.7c0,20.7,16.8,37.5,37.5,37.5h375
		c20.7,0,37.5-16.8,37.5-37.5V228.7c1.2-0.5,2.5-0.9,3.7-1.4c2.9-1.1,4.9-3.9,4.9-7V107.5C470,86.8,453.2,70,432.5,70z M152.5,22.5
		c0-4.1,3.4-7.5,7.5-7.5h150c4.1,0,7.5,3.4,7.5,7.5V70h-15V37.5c0-4.1-3.4-7.5-7.5-7.5H175c-4.1,0-7.5,3.4-7.5,7.5V70h-15V22.5z
		 M182.5,70V45h105v25H182.5z M26.4,432.5v-42.1c34,3.5,61.1,30.6,64.6,64.6H48.9C36.5,455,26.4,444.9,26.4,432.5z M423.9,455h-42.1
		c3.5-34,30.6-61.1,64.6-64.6v42.1C446.4,444.9,436.3,455,423.9,455z M446.4,375.3c-42.3,3.6-76.1,37.4-79.7,79.7H106.1
		c-3.6-42.3-37.4-76.1-79.7-79.7V235c55.7,18.8,113.6,29.9,172.5,33.2v43.5c0,4.1,3.4,7.5,7.5,7.5h60c4.1,0,7.5-3.4,7.5-7.5V268
		c26.3-1.6,52.8-4.7,78.7-9.5c4.1-0.7,6.8-4.7,6-8.7c-0.7-4.1-4.7-6.8-8.7-6c-25.1,4.6-50.6,7.7-76,9.2v-31.3c0-4.1-3.4-7.5-7.5-7.5
		h-60c-4.1,0-7.5,3.4-7.5,7.5v31.5c-60.8-3.4-120.4-15.4-177.5-35.8c-0.1,0-0.2-0.1-0.3-0.1c-2-0.7-4.1-1.5-6.1-2.2V107.5
		C15,95.1,25.1,85,37.5,85h395c12.4,0,22.5,10.1,22.5,22.5v107.6c-24.7,9.1-50.2,16.7-76,22.7c-4,0.9-6.5,5-5.6,9s5,6.6,9,5.6
		c21.6-5,43.1-11.1,64-18.3V375.3z M213.9,289.2h45v15h-45L213.9,289.2L213.9,289.2z M258.9,274.2h-45v-45h45V274.2z"/>
	<circle class="st1" cx="83" cy="123" r="7.5"/>
	<circle class="st1" cx="53" cy="153" r="7.5"/>
</g>
</svg>
