<?xml version="1.0" encoding="utf-8"?>
<!-- Generator: Adobe Illustrator 25.4.1, SVG Export Plug-In . SVG Version: 6.00 Build 0)  -->
<svg version="1.1" id="Layer_1" xmlns="http://www.w3.org/2000/svg" xmlns:xlink="http://www.w3.org/1999/xlink" x="0px" y="0px"
	 viewBox="0 0 42.1 41.4" style="enable-background:new 0 0 42.1 41.4;" xml:space="preserve">
<style type="text/css">
	.st0{fill-rule:evenodd;clip-rule:evenodd;fill:#FFFFFF;}
</style>
<path class="st0" d="M32.5,8.9c-1.1,0-2,0.9-2,2s0.9,2,2,2c1.1,0,2-0.9,2-2S33.6,8.9,32.5,8.9z M28.5,10.9c0-2.2,1.8-4,4-4
	s4,1.8,4,4s-1.8,4-4,4S28.5,13.1,28.5,10.9z"/>
<path class="st0" d="M26.2,16c0.6-0.7,1.4-1.1,2.3-1.1h6c0.1,0,0.2,0,0.2,0h2.7c0.5,0,1,0.2,1.4,0.4c0.5,0.2,1,0.6,1.5,1.1
	c1,1,1.8,2.4,1.8,4.3c0,2.3-0.8,4.1-1.7,5.2c-0.5,0.6-1,1-1.5,1.3c-0.1,0.1-0.3,0.2-0.5,0.2v11.4c0,1.5-1.2,2.6-2.6,2.6
	c-1.5,0-2.6-1.2-2.6-2.6l0.4-8.7l-1.9,0.1l0.2,8.6c0,1.5-1.2,2.6-2.6,2.6c-1.5,0-2.6-1.2-2.6-2.6V25c-0.6,0.5-1.3,0.8-2.1,0.8h-6
	c-1.7,0-3-1.3-3-3s1.3-3,3-3h4.6L26.2,16z M28.5,16.9c-0.3,0-0.6,0.1-0.8,0.4l-3.7,4.6h-5.5c-0.6,0-1,0.4-1,1s0.4,1,1,1h6
	c0.3,0,0.6-0.1,0.8-0.4l3.3-4.1v19.4c0,0.3,0.3,0.6,0.6,0.6c0.3,0,0.6-0.3,0.6-0.6l0.2-10.6h5.1l-0.1,10.6c0,0.3,0.3,0.6,0.6,0.6
	s0.6-0.3,0.6-0.6V25.6h1c0,0,0,0,0,0c0,0,0.2,0,0.4-0.2c0.3-0.2,0.6-0.4,1-0.8c0.7-0.8,1.3-2,1.3-3.9c0-1.3-0.6-2.2-1.2-2.9
	c-0.3-0.3-0.7-0.6-1-0.7c-0.3-0.2-0.5-0.2-0.5-0.2c0,0,0,0,0,0h-2.7l0,0c0,0-0.1,0-0.1,0H28.5z"/>
<path class="st0" d="M0.5,0.9h33V6h-2V2.9h-29v24h23v2h-25V0.9z"/>
<path class="st0" d="M36.4,26.5v-7.6h2v7.6H36.4z"/>
</svg>
