<?xml version="1.0" standalone="no"?>
<!DOCTYPE svg PUBLIC "-//W3C//DTD SVG 20010904//EN"
 "http://www.w3.org/TR/2001/REC-SVG-20010904/DTD/svg10.dtd">
<svg version="1.0" xmlns="http://www.w3.org/2000/svg"
 width="1280.000000pt" height="1280.000000pt" viewBox="0 0 1280.000000 1280.000000"
 preserveAspectRatio="xMidYMid meet">
<metadata>
Created by potrace 1.15, written by Peter Selinger 2001-2017
</metadata>
<g transform="translate(0.000000,1280.000000) scale(0.100000,-0.100000)"
fill="#419c6b" stroke="none">
<path d="M5720 10610 c-523 -46 -1034 -192 -1478 -426 -886 -465 -1556 -1254
-1868 -2199 -117 -355 -176 -686 -191 -1068 -6 -159 -7 -168 -27 -172 -128
-26 -324 -81 -419 -119 -782 -306 -1323 -982 -1454 -1816 -25 -159 -24 -508 1
-670 79 -506 314 -964 677 -1315 348 -337 761 -543 1259 -628 l125 -21 3758
-3 c3113 -3 3757 -1 3757 10 0 9 35 19 113 31 288 45 574 139 862 281 611 301
1089 779 1390 1390 193 391 286 742 316 1191 25 383 -39 827 -176 1209 -65
183 -216 484 -323 645 -312 468 -711 821 -1207 1065 -206 102 -320 147 -508
201 -224 64 -525 114 -693 114 -41 0 -77 5 -87 13 -9 6 -34 51 -56 99 -99 217
-305 546 -477 763 -122 153 -442 470 -603 598 -574 454 -1221 723 -1956 813
-154 18 -585 27 -735 14z m1452 -4020 l3 -1341 568 1 c312 0 567 -3 567 -7 0
-5 -430 -438 -955 -963 l-955 -955 -955 955 c-525 525 -955 958 -955 962 0 4
258 8 573 8 l572 0 0 1340 0 1340 767 0 768 0 2 -1340z"/>
</g>
</svg>
