<?xml version="1.0" encoding="utf-8"?>
<!-- Generator: Adobe Illustrator 25.4.1, SVG Export Plug-In . SVG Version: 6.00 Build 0)  -->
<svg version="1.1" id="Layer_1" xmlns="http://www.w3.org/2000/svg" xmlns:xlink="http://www.w3.org/1999/xlink" x="0px" y="0px"
	 viewBox="0 0 512.5 512.5" style="enable-background:new 0 0 512.5 512.5;" xml:space="preserve">
<style type="text/css">
	.st0{fill:#FFFFFF;}
	.st1{display:none;fill:#FFFFFF;}
</style>
<g transform="translate(-1)">
	<g>
		<g>
			<path class="st0" d="M506.8,376.2c-2.5-4.7-5.7-9.5-9.4-14.2c-8.6-10.8-20.2-21.8-34.3-32.9c-9.8-7.8-20.2-15.1-30.7-22
				c-6.3-4.1-11.2-7.1-14.1-8.8c-24.7-14.1-53.3-12.2-68,11.5c-0.7,0.8-1.6,1.8-2.6,3c-2.8,3.3-5.6,6.5-8.3,9.5
				c-0.6,0.7-0.6,0.7-1.2,1.3c-4.4,5-8.5,9.2-8.3,9.1c-16.3,11-26.9,10.2-41.3-4.2L185,224.7c-14.4-14.4-15.2-25-4.2-41.3
				c-0.1,0.2,4.1-3.9,9.1-8.3c0.6-0.6,0.6-0.6,1.3-1.2c3-2.7,6.3-5.5,9.5-8.3c1.2-1,2.2-1.9,3-2.6c23.7-14.7,25.6-43.2,11.6-67.8
				c-1.9-3.2-4.9-8.1-9-14.4c-6.8-10.4-14.2-20.8-22-30.7c-11.1-14.1-22.1-25.7-32.9-34.3c-4.8-3.8-9.5-6.9-14.2-9.4
				C115.2-5.1,88.1-1,70.4,16.6l-22.9,23c-76.1,76.1-55.1,166.7,35.8,257.7l66.4,66.5l66.5,66.4c90.9,90.9,181.6,111.9,257.7,35.8
				l22.9-22.9C514.5,425.4,518.5,398.3,506.8,376.2z M466.6,412.8l-22.9,23c-55.7,55.7-121,40.6-197.3-35.8l-66.5-66.4l-66.4-66.4
				C37.1,190.7,22,125.4,77.7,69.8l22.9-22.9c4.4-4.4,11.2-5.4,16.7-2.5c2.3,1.2,4.9,2.9,7.7,5.2c7.8,6.2,16.7,15.6,25.9,27.3
				c6.9,8.7,13.6,18.1,19.7,27.6c3.7,5.6,6.4,10,7.7,12.3c3.8,6.8,3.6,9.7,2.5,10.4l-3.2,2.2c-0.9,0.8-2.6,2.1-4.6,3.9
				c-3.4,2.9-6.9,5.9-10.1,8.8c-0.7,0.6-0.7,0.6-1.4,1.3c-8.4,7.5-13.2,12.1-16,16.3c-22.4,33.1-19.6,66.4,9.4,95.4l103.8,103.8
				c29,29,62.3,31.7,95.4,9.4c4.1-2.8,8.8-7.6,16.3-16c0.6-0.7,0.6-0.7,1.3-1.4c2.9-3.2,5.8-6.7,8.8-10.1c1.8-2.1,3.1-3.7,3.9-4.6
				l2.2-3.2c0.6-1.1,3.6-1.4,10.6,2.6c2.1,1.2,6.5,3.9,12.1,7.6c9.4,6.2,18.8,12.8,27.6,19.7c11.7,9.2,21.1,18.1,27.3,25.9
				c2.2,2.8,4,5.4,5.2,7.7C472.1,401.7,471,408.4,466.6,412.8z"/>
			<path class="st1" d="M272.5,100.4l27.6-27.6V192c0,11.8,9.6,21.3,21.3,21.3h170.7c11.8,0,21.3-9.6,21.3-21.3s-9.6-21.3-21.3-21.3
				H342.8V72.8l27.6,27.6c8.3,8.3,21.8,8.3,30.2,0s8.3-21.8,0-30.2l-64-64c-0.5-0.5-1-1-1.6-1.4c-0.2-0.2-0.5-0.4-0.8-0.6
				c-0.3-0.2-0.6-0.5-0.9-0.7s-0.6-0.4-0.9-0.6s-0.6-0.3-0.9-0.5s-0.6-0.3-1-0.5c-0.3-0.1-0.6-0.3-0.9-0.4s-0.6-0.2-1-0.4
				c-0.3-0.1-0.7-0.2-1-0.4c-0.3-0.1-0.6-0.2-1-0.2c-0.4-0.1-0.7-0.2-1.1-0.3s-0.8-0.1-1.1-0.2c-0.3,0-0.6-0.1-0.9-0.1
				c-1.4-0.1-2.8-0.1-4.2,0c-0.3,0-0.6,0.1-0.9,0.1c-0.4,0.1-0.8,0.1-1.1,0.2c-0.4,0.1-0.7,0.2-1.1,0.3c-0.3,0.1-0.6,0.2-1,0.2
				c-0.3,0.1-0.7,0.2-1,0.4c-0.3,0.1-0.6,0.2-1,0.4s-0.6,0.3-0.9,0.4c-0.3,0.2-0.7,0.3-1,0.5s-0.6,0.3-0.9,0.5s-0.6,0.4-0.9,0.6
				c-0.3,0.2-0.6,0.4-0.9,0.7c-0.3,0.2-0.5,0.4-0.8,0.6c-0.5,0.4-1.1,0.9-1.6,1.4l0,0l-64,64c-8.3,8.3-8.3,21.8,0,30.2
				S264.2,108.8,272.5,100.4z"/>
		</g>
	</g>
</g>
</svg>
