<?xml version="1.0" encoding="utf-8"?>
<!-- Generator: Adobe Illustrator 25.4.1, SVG Export Plug-In . SVG Version: 6.00 Build 0)  -->
<svg version="1.1" id="Capa_1" xmlns="http://www.w3.org/2000/svg" xmlns:xlink="http://www.w3.org/1999/xlink" x="0px" y="0px"
	 viewBox="0 0 294.5 294.5" style="enable-background:new 0 0 294.5 294.5;" xml:space="preserve">
<style type="text/css">
	.st0{fill:#FFFFFF;}
</style>
<g>
	<path class="st0" d="M291.6,189.7l-38.9-38.9c-7.7-7.7-21.8-13.5-32.7-13.5H118c-13.8,0-25,11.2-25,25v3c0,13.8,11.2,25,25,25h26.9
		l-5.3,5.3c-3.6,3.6-11.9,6.4-17,5.7L36.8,189c-11.3-1.6-24.9,2.2-31.6,9c-4.2,4.2-6,9.7-4.9,15.3c1.2,6.5,6.2,12,13.6,15.2
		l87.9,37.7c9.6,4.1,24.5,5.3,34.7,2.8l36.9-9.2c8.6-2.2,21.8-6.7,29.9-10.3l9.7-4.3c3.6-1.6,9.7-0.3,12.4,2.6l35.2,38.4
		c2,2.2,4.7,3.2,7.4,3.2c2.4,0,4.8-0.9,6.8-2.6c4.1-3.7,4.4-10.1,0.6-14.1l-35.2-38.4c-8.4-9.2-23.9-12.4-35.3-7.4l-9.7,4.3
		c-7,3.1-19.2,7.3-26.6,9.2l-36.9,9.2c-5.9,1.5-16.4,0.6-22-1.8l-87.2-37.4c3.1-1.2,7.6-2.1,11.5-1.5l85.8,12.3
		c11.3,1.6,25.9-3.3,33.9-11.3l11.8-11.8c8.2-8.2,6.4-15.6,5.3-18.4c-1.2-2.8-5.1-9.3-16.7-9.3h-36c-2.7,0-5-2.3-5-5v-3
		c0-2.7,2.3-5,5-5h102c5.6,0,14.6,3.7,18.5,7.7l38.9,38.9c3.9,3.9,10.2,3.9,14.1,0C295.5,199.9,295.5,193.6,291.6,189.7z"/>
	<path class="st0" d="M20.5,25.3H27v56c0,5.5,4.5,10,10,10c5.5,0,10-4.5,10-10v-56h13v89c0,5.5,4.5,10,10,10h132c5.5,0,10-4.5,10-10
		v-89h39.5c5.5,0,10-4.5,10-10s-4.5-10-10-10h-231c-5.5,0-10,4.5-10,10S15,25.3,20.5,25.3z M192,104.3H80v-79h112V104.3z"/>
</g>
</svg>
