<?xml version="1.0" encoding="utf-8"?>
<!-- Generator: Adobe Illustrator 25.4.1, SVG Export Plug-In . SVG Version: 6.00 Build 0)  -->
<svg version="1.1" id="Capa_1" xmlns="http://www.w3.org/2000/svg" xmlns:xlink="http://www.w3.org/1999/xlink" x="0px" y="0px"
	 viewBox="0 0 55 55" style="enable-background:new 0 0 55 55;" xml:space="preserve">
<style type="text/css">
	.st0{fill:#419C6B;}
</style>
<path class="st0" d="M52.4,8.5C51.2,4.2,42.6,0,27.5,0S3.8,4.2,2.6,8.5C2.6,8.7,2.5,8.8,2.5,9v0.5V21v0.5V22v11v0.5V34v12
	c0,0.2,0,0.3,0.1,0.5C3.8,51.3,14.4,55,27.5,55c13.1,0,23.7-3.6,24.9-8.5c0.1-0.1,0.1-0.3,0.1-0.5V34v-0.5V33V22v-0.5V21V9.5V9
	C52.5,8.8,52.4,8.7,52.4,8.5z M50.4,34c0,0.1-0.1,0.2-0.1,0.4c0,0.1-0.1,0.2-0.1,0.3c-0.1,0.1-0.1,0.2-0.2,0.4
	c-0.1,0.1-0.1,0.2-0.2,0.3c-0.1,0.1-0.2,0.3-0.4,0.4c-0.1,0.1-0.2,0.2-0.3,0.2c-0.2,0.1-0.3,0.3-0.5,0.4c-0.1,0.1-0.2,0.1-0.3,0.2
	c-0.2,0.2-0.5,0.3-0.7,0.5c-0.1,0-0.1,0.1-0.2,0.1c-0.3,0.2-0.6,0.3-0.9,0.5c0,0-0.1,0-0.1,0.1c-0.4,0.2-0.8,0.4-1.2,0.5
	c0,0,0,0,0,0c-2.3,0.9-5.2,1.7-8.6,2.2c0,0,0,0-0.1,0c-0.7,0.1-1.3,0.2-2,0.3c-0.1,0-0.2,0-0.3,0c-0.6,0.1-1.2,0.1-1.8,0.2
	c-0.3,0-0.6,0-0.9,0c-0.5,0-0.9,0.1-1.4,0.1c-0.8,0-1.6,0-2.4,0s-1.6,0-2.4,0c-0.5,0-1,0-1.4-0.1c-0.3,0-0.6,0-0.9,0
	c-0.6,0-1.2-0.1-1.8-0.2c-0.1,0-0.2,0-0.3,0c-0.7-0.1-1.4-0.2-2-0.3c0,0,0,0-0.1,0c-3.4-0.5-6.3-1.3-8.6-2.2c0,0,0,0,0,0
	c-0.4-0.2-0.8-0.3-1.2-0.5c0,0-0.1,0-0.1-0.1c-0.3-0.2-0.6-0.3-0.9-0.5c-0.1,0-0.1-0.1-0.2-0.1c-0.3-0.2-0.5-0.3-0.7-0.5
	c-0.1-0.1-0.2-0.1-0.3-0.2c-0.2-0.1-0.4-0.3-0.5-0.4c-0.1-0.1-0.2-0.2-0.3-0.2c-0.1-0.1-0.3-0.3-0.4-0.4c-0.1-0.1-0.2-0.2-0.2-0.3
	c-0.1-0.1-0.2-0.2-0.2-0.4c-0.1-0.1-0.1-0.2-0.1-0.3c0-0.1-0.1-0.2-0.1-0.4c0-0.2-0.1-0.3-0.1-0.5c0-0.1,0-0.2,0-0.3
	c0-0.2,0-0.3,0-0.4v-7.4c0,0,0.1,0.1,0.1,0.1c0.2,0.2,0.4,0.4,0.7,0.6C9,28.8,16.6,31,27.5,31c10.9,0,18.4-2.2,22.2-5
	c0.3-0.2,0.6-0.4,0.8-0.7l0,0v7.4c0,0.1-0.1,0.3,0,0.4c0,0.1,0,0.2,0,0.3C50.5,33.7,50.5,33.8,50.4,34z M50.5,13.3v7.4
	c0,0.1-0.1,0.3,0,0.4c0,0.1,0,0.2,0,0.3c0,0.2,0,0.3-0.1,0.5c0,0.1-0.1,0.2-0.1,0.4c0,0.1-0.1,0.2-0.1,0.3c-0.1,0.1-0.1,0.2-0.2,0.4
	c-0.1,0.1-0.1,0.2-0.2,0.3c-0.1,0.1-0.2,0.3-0.4,0.4c-0.1,0.1-0.2,0.2-0.3,0.2c-0.2,0.1-0.3,0.3-0.5,0.4c-0.1,0.1-0.2,0.1-0.3,0.2
	c-0.2,0.2-0.5,0.3-0.7,0.5c-0.1,0-0.1,0.1-0.2,0.1c-0.3,0.2-0.6,0.3-0.9,0.5c0,0-0.1,0-0.1,0.1c-0.4,0.2-0.8,0.4-1.2,0.5
	c0,0,0,0,0,0c-2.3,0.9-5.2,1.7-8.6,2.2c0,0,0,0-0.1,0c-0.7,0.1-1.3,0.2-2,0.3c-0.1,0-0.2,0-0.3,0c-0.6,0.1-1.2,0.1-1.8,0.2
	c-0.3,0-0.6,0-0.9,0c-0.5,0-0.9,0.1-1.4,0.1c-0.8,0-1.6,0-2.4,0s-1.6,0-2.4,0c-0.5,0-1,0-1.4-0.1c-0.3,0-0.6,0-0.9,0
	c-0.6,0-1.2-0.1-1.8-0.2c-0.1,0-0.2,0-0.3,0c-0.7-0.1-1.4-0.2-2-0.3c0,0,0,0-0.1,0c-3.4-0.5-6.3-1.3-8.6-2.2c0,0,0,0,0,0
	c-0.4-0.2-0.8-0.3-1.2-0.5c0,0-0.1,0-0.1-0.1c-0.3-0.2-0.6-0.3-0.9-0.5c-0.1,0-0.1-0.1-0.2-0.1c-0.3-0.2-0.5-0.3-0.7-0.5
	c-0.1-0.1-0.2-0.1-0.3-0.2c-0.2-0.1-0.4-0.3-0.5-0.4c-0.1-0.1-0.2-0.2-0.3-0.2c-0.1-0.1-0.3-0.3-0.4-0.4c-0.1-0.1-0.2-0.2-0.2-0.3
	c-0.1-0.1-0.2-0.2-0.2-0.4c-0.1-0.1-0.1-0.2-0.1-0.3c0-0.1-0.1-0.2-0.1-0.4c0-0.2-0.1-0.3-0.1-0.5c0-0.1,0-0.2,0-0.3
	c0-0.2,0-0.3,0-0.4v-7.4c0.1,0.1,0.3,0.2,0.4,0.3C5,13.7,5,13.7,5.1,13.8c0.3,0.2,0.6,0.5,1,0.7c0.1,0,0.2,0.1,0.2,0.1
	c0.3,0.2,0.6,0.4,0.9,0.5c0.1,0.1,0.2,0.1,0.4,0.2c0.4,0.2,0.7,0.4,1.2,0.5C8.8,15.9,8.9,16,9,16c0.5,0.2,1,0.4,1.5,0.6
	c0.1,0.1,0.3,0.1,0.4,0.1c0.4,0.1,0.8,0.3,1.3,0.4c0.2,0,0.3,0.1,0.5,0.1c0.6,0.2,1.2,0.3,1.8,0.5c0.1,0,0.2,0,0.3,0.1
	c0.6,0.1,1.1,0.2,1.7,0.3c0.2,0,0.4,0.1,0.6,0.1c0.6,0.1,1.2,0.2,1.8,0.3c0.2,0,0.3,0,0.5,0.1c0.7,0.1,1.5,0.2,2.3,0.2
	c0.2,0,0.4,0,0.6,0c0.6,0,1.3,0.1,1.9,0.1c0.2,0,0.5,0,0.7,0c0.9,0,1.7,0,2.6,0s1.8,0,2.6,0c0.2,0,0.5,0,0.7,0
	c0.7,0,1.3-0.1,1.9-0.1c0.2,0,0.4,0,0.6,0c0.8-0.1,1.6-0.1,2.3-0.2c0.2,0,0.3,0,0.5-0.1c0.6-0.1,1.2-0.2,1.8-0.3
	c0.2,0,0.4-0.1,0.6-0.1c0.6-0.1,1.2-0.2,1.7-0.3c0.1,0,0.2,0,0.3-0.1c0.6-0.1,1.2-0.3,1.8-0.5c0.2,0,0.3-0.1,0.5-0.1
	c0.4-0.1,0.9-0.3,1.3-0.4c0.1,0,0.3-0.1,0.4-0.1c0.5-0.2,1-0.4,1.5-0.6c0.1,0,0.1-0.1,0.2-0.1c0.4-0.2,0.8-0.4,1.2-0.5
	c0.1-0.1,0.2-0.1,0.4-0.2c0.3-0.2,0.6-0.4,0.9-0.5c0.1,0,0.2-0.1,0.2-0.1c0.4-0.2,0.7-0.5,1-0.7c0.1-0.1,0.1-0.1,0.2-0.2
	C50.2,13.5,50.4,13.4,50.5,13.3z M27.5,2c13.6,0,23,4,23,7.5s-9.4,7.5-23,7.5s-23-4-23-7.5S13.9,2,27.5,2z M50.5,45.7
	c0,0,0,0.1,0,0.1c-0.6,3.5-9.9,7.2-23,7.2s-22.4-3.7-23-7.2c0,0,0-0.1,0-0.1v-8.4c0,0,0.1,0.1,0.1,0.1c0.2,0.2,0.4,0.4,0.7,0.6
	C9,40.8,16.6,43,27.5,43c10.9,0,18.4-2.2,22.2-5c0.3-0.2,0.6-0.4,0.8-0.7l0,0V45.7z"/>
</svg>
