<?xml version="1.0" encoding="utf-8"?>
<!-- Generator: Adobe Illustrator 25.4.1, SVG Export Plug-In . SVG Version: 6.00 Build 0)  -->
<svg version="1.1" id="Layer_1" xmlns="http://www.w3.org/2000/svg" xmlns:xlink="http://www.w3.org/1999/xlink" x="0px" y="0px"
	 viewBox="0 0 512 512" style="enable-background:new 0 0 512 512;" xml:space="preserve">
<style type="text/css">
	.st0{fill:#FFFFFF;}
</style>
<g transform="translate(1 1)">
	<g>
		<path class="st0" d="M506.7,217.7L259.3,82c-2.6-1.7-6-1.7-8.5,0L3.3,217.7C0.7,219.4-1,222-1,225.4c0,2.6,1.7,6,5.1,6.8l29,14.1
			v79.9l-23,51c-4.3,9.4-3.4,20.5,2.6,29.9s15.4,14.5,26.5,14.5h6c10.2,0,19.6-4.3,25.6-13.7s6.8-20.5,2.6-29.9l-23-51.8v-71.7
			l42.7,20.7v66.9c0,21.3,12.8,41.8,33.3,52.1l17.1,8.5c35,17.9,73.4,26.5,111.8,26.5s76.8-8.5,112.6-25.6l17.1-8.5
			c20.5-10.2,33.3-30.7,33.3-52.1v-67.3l87.9-42.7c3.4-1.7,5.1-4.3,5.1-7.7S509.3,219.4,506.7,217.7z M57,397.7
			c-2.6,4.3-6.8,6.8-11.9,6.8h-6c-5.1,0-10.2-2.6-12.8-6.8s-2.6-9.4-0.9-13.7l16.2-35.8L57.8,384C60.4,388.3,59.6,393.5,57,397.7z
			 M400.9,284.2v58.9c0,15.4-9.4,29.9-23.9,36.7l-17.1,8.5c-65.7,32.4-143.4,32.4-209.1,0l-17.1-8.5c-14.5-7.7-23.9-22.2-23.9-36.7
			v-58.9l141.7,68.3c0.9,0.9,2.6,0.9,3.4,0.9s2.6,0,3.4,0l103.3-50.2L400.9,284.2z M255,335.4L105.7,262c-0.9-0.3-2-0.5-3.1-0.5
			L72,246.6l142.3-17.1c5.3,17.5,21.4,30,40.8,30c23.9,0,42.7-18.8,42.7-42.7s-18.8-42.7-42.7-42.7c-22.4,0-40.3,16.5-42.5,38.3
			L43.3,232.7l-17-8.2L255,98.2l228.7,126.3L255,335.4z M263.5,215.1c-0.9-5.1-5.1-8.5-9.4-7.7l-24,2.9
			c2.8-11.2,12.6-19.1,24.8-19.1c14.5,0,25.6,11.1,25.6,25.6s-11.1,25.6-25.6,25.6c-10.7,0-19.5-6-23.4-15l24.3-2.9
			C261,223.6,264.4,219.4,263.5,215.1z"/>
	</g>
</g>
</svg>
