<?xml version="1.0" encoding="utf-8"?>
<!-- Generator: Adobe Illustrator 25.4.1, SVG Export Plug-In . SVG Version: 6.00 Build 0)  -->
<svg version="1.1" id="Layer_1" xmlns="http://www.w3.org/2000/svg" xmlns:xlink="http://www.w3.org/1999/xlink" x="0px" y="0px"
	 viewBox="0 0 512 512" style="enable-background:new 0 0 512 512;" xml:space="preserve">
<style type="text/css">
	.st0{fill:#369161;}
</style>
<g>
	<g>
		<g>
			<path class="st0" d="M3.2,126.1l221.7,176.5c1.6,1.3,15.8,13,31.1,13c15.4,0,29.7-11.3,31.3-12.5l221.5-177.1
				c2-1.6,3.2-4.1,3.2-6.7c0-23.5-19.1-42.7-42.7-42.7H42.7C19.1,76.8,0,95.9,0,119.5C0,122.1,1.2,124.5,3.2,126.1z M42.7,93.9
				h426.7c12.8,0,23.4,9.4,25.3,21.7l-218,174.3c-3,2.4-12.7,8.8-20.6,8.8c-7.7,0-17.1-6.5-20.3-9.2L17.4,115.6
				C19.2,103.3,29.9,93.9,42.7,93.9z"/>
			<path class="st0" d="M156.9,274.9L37.4,368.8c-3.7,2.9-4.3,8.3-1.4,12c1.7,2.1,4.2,3.3,6.7,3.3c1.9,0,3.7-0.6,5.3-1.8l119.5-93.9
				c3.7-2.9,4.3-8.3,1.4-12C165.9,272.6,160.6,272,156.9,274.9z"/>
			<path class="st0" d="M355.1,274.9c-3.7-2.9-9.1-2.3-12,1.4s-2.3,9.1,1.4,12l119.5,93.9c1.6,1.2,3.4,1.8,5.3,1.8
				c2.5,0,5-1.1,6.7-3.3c2.9-3.7,2.3-9.1-1.4-12L355.1,274.9z"/>
			<path class="st0" d="M503.5,153.6c-4.7,0-8.5,3.8-8.5,8.5v230.4c0,14.1-11.5,25.6-25.6,25.6H42.7c-14.1,0-25.6-11.5-25.6-25.6
				V162.1c0-4.7-3.8-8.5-8.5-8.5S0,157.4,0,162.1v230.4c0,23.5,19.1,42.7,42.7,42.7h426.7c23.5,0,42.7-19.1,42.7-42.7V162.1
				C512,157.4,508.2,153.6,503.5,153.6z"/>
		</g>
	</g>
</g>
</svg>
