<?xml version="1.0" encoding="utf-8"?>
<!-- Generator: Adobe Illustrator 25.4.1, SVG Export Plug-In . SVG Version: 6.00 Build 0)  -->
<svg version="1.1" id="Capa_1" xmlns="http://www.w3.org/2000/svg" xmlns:xlink="http://www.w3.org/1999/xlink" x="0px" y="0px"
	 viewBox="0 0 29.9 29.9" style="enable-background:new 0 0 29.9 29.9;" xml:space="preserve">
<style type="text/css">
	.st0{fill:#FFFFFF;}
</style>
<g>
	<path class="st0" d="M27.6,0H2.4C1.1,0,0,1.1,0,2.5v25C0,28.9,1.1,30,2.4,30h25.2c1.3,0,2.4-1.1,2.4-2.5v-25
		C29.9,1.1,28.9,0,27.6,0z M20.1,8.9c-0.6-0.4-1.1-0.7-1.7-0.7S17.3,8.4,17,8.6c-0.3,0.3-0.4,0.8-0.4,1.5v1.1h3.2l-0.7,3.1h-2.5
		v10.3h-4.1V14.4h-1.9v-3.1h1.9v-1.2c0-1.3,0.1-2,0.4-2.6c0.3-0.6,0.8-1.3,1.6-1.7c0.8-0.4,1.9-0.6,3-0.6c1.2,0,2.1,0.4,3.3,0.7
		L20.1,8.9z"/>
</g>
</svg>
