<?xml version="1.0" encoding="utf-8"?>
<!-- Generator: Adobe Illustrator 25.4.1, SVG Export Plug-In . SVG Version: 6.00 Build 0)  -->
<svg version="1.1" id="Capa_1" xmlns="http://www.w3.org/2000/svg" xmlns:xlink="http://www.w3.org/1999/xlink" x="0px" y="0px"
	 viewBox="0 0 60 60" style="enable-background:new 0 0 60 60;" xml:space="preserve">
<style type="text/css">
	.st0{fill:#FFFFFF;}
</style>
<g>
	<path class="st0" d="M60,19.1c0-4.5-3.6-8.1-8.1-8.1H44V8h-2V6.9C42,3.1,38.9,0,35.1,0H24.9C21.1,0,18,3.1,18,6.9V8h-2v3H8.1
		C3.6,11,0,14.6,0,19.1v10.2l0.7,0.2l0,0L1,29.7v27.1C1,58.6,2.4,60,4.2,60h51.5c1.8,0,3.2-1.4,3.2-3.2V29.7l0.3-0.1l0,0l0.7-0.2
		L60,19.1L60,19.1z M51.9,13c3.4,0,6.1,2.8,6.1,6.1v8.8l-0.8,0.3L57,28.3l0,0l-4.3,1.5c-4.3,1.5-9,2.4-14.7,3V25h-3V13h9H51.9z
		 M27,39h6v1.6L30.6,43h-1.2L27,40.6V39z M25,37h-1v-2v-8h1h10h1v8v2h-1H25z M36,8h-2v3h-8V8h-2V6.4C24,6.2,24.2,6,24.2,6
		s0.3-0.2,0.5-0.1c3.4,1.4,7.1,1.4,10.4,0c0.3-0.1,0.5,0,0.5,0.1C35.8,6,36,6.2,36,6.4V8z M27,13h6v12h-6V13z M42,11h-6v-1h6V11z
		 M20,6.9C20,4.2,22.2,2,24.9,2h10.2C37.8,2,40,4.2,40,6.9V8h-2V6.4c0-0.9-0.4-1.7-1.1-2.1c-0.7-0.5-1.6-0.6-2.4-0.2
		c-2.9,1.2-6,1.2-8.9,0c-0.8-0.3-1.7-0.2-2.4,0.2C22.4,4.8,22,5.6,22,6.4V8h-2V6.9z M18,10h6v1h-6V10z M8.1,13H16h9v12h-3v7.8
		c-5.5-0.5-10-1.4-14.7-3.1L3,28.3l0,0l-0.5-0.2L2,27.9v-8.8C2,15.8,4.8,13,8.1,13z M57,56.8c0,0.7-0.6,1.2-1.2,1.2H4.2
		C3.6,58,3,57.4,3,56.8V30.4l3.7,1.3c4.9,1.7,9.6,2.7,15.3,3.2V39h3v2.4l3.6,3.6h2.8l3.6-3.6V39h3v-4.2c6-0.6,10.9-1.6,15.3-3.2
		l3.7-1.3V56.8z"/>
	<path class="st0" d="M42,55h12v-6H42V55z M44,51h8v2h-8V51z"/>
	<path class="st0" d="M27,34h2v1c0,0.6,0.4,1,1,1s1-0.4,1-1v-1h2v-6h-6V34z M29,30h2v2h-2V30z"/>
</g>
</svg>
