<?xml version="1.0" encoding="utf-8"?>
<!-- Generator: Adobe Illustrator 25.4.1, SVG Export Plug-In . SVG Version: 6.00 Build 0)  -->
<svg version="1.1" id="Capa_1" xmlns="http://www.w3.org/2000/svg" xmlns:xlink="http://www.w3.org/1999/xlink" x="0px" y="0px"
	 viewBox="0 0 354 433.5" style="enable-background:new 0 0 354 433.5;" xml:space="preserve">
<style type="text/css">
	.st0{fill:#FFFFFF;}
</style>
<path id="XMLID_1151_" class="st0" d="M231.6,250c3.9,0,7,3.1,7,7c0,3.9-3.1,7-7,7h-60.2c-3.9,0-7-3.1-7-7s3.1-7,7-7L231.6,250
	L231.6,250z M270.4,225.5c0-3.9-3.1-7-7-7h-92.1c-3.9,0-7,3.1-7,7s3.1,7,7,7h92.1C267.3,232.5,270.4,229.4,270.4,225.5z M119.2,65.2
	v-31c0-3.9,3.1-7,7-7l25.4,0c0-15,12.2-27.2,27.2-27.2c15,0,27.2,12.2,27.2,27.2v0h25.4c3.9,0,7,3.1,7,7v31c0,3.9-3.1,7-7,7H126.2
	C122.3,72.2,119.2,69.1,119.2,65.2z M133.2,58.2h91.1v-17h-25.4c-3.9,0-7-3.1-7-7v-7c0-7.3-5.9-13.2-13.2-13.2
	c-7.3,0-13.2,5.9-13.2,13.2v7c0,3.9-3.1,7-7,7h-25.4L133.2,58.2L133.2,58.2z M345.6,51v365.7c0,9.3-7.6,16.9-16.9,16.9H28.8
	c-9.3,0-16.9-7.6-16.9-16.9V51c0-9.3,7.6-16.9,16.9-16.9h67.8c3.9,0,7,3.1,7,7s-3.1,7-7,7H57.5v337.7H300V48.1h-39.1
	c-3.9,0-7-3.1-7-7s3.1-7,7-7h67.8C338,34.1,345.6,41.7,345.6,51z M331.6,51c0-1.6-1.3-2.9-2.9-2.9H314v344.7c0,3.9-3.1,7-7,7H50.5
	c-3.9,0-7-3.1-7-7V48.1H28.8c-1.6,0-2.9,1.3-2.9,2.9v365.7c0,1.6,1.3,2.9,2.9,2.9h299.9c1.6,0,2.9-1.3,2.9-2.9V51z M90.7,128.3
	c-3.4,1.9-4.6,6.1-2.7,9.5l12.9,23.1c1.2,2.2,3.6,3.6,6.1,3.6c2.5,0,4.9-1.4,6.1-3.6l22.4-40.3c1.9-3.4,0.7-7.6-2.7-9.5
	c-3.4-1.9-7.6-0.7-9.5,2.7L107,143.2l-6.7-12.1C98.3,127.7,94.1,126.4,90.7,128.3z M132.8,215c-3.4-1.9-7.6-0.7-9.5,2.7L107,247
	l-6.7-12.1c-1.9-3.4-6.1-4.6-9.5-2.7c-3.4,1.9-4.6,6.1-2.7,9.5l12.9,23.1c1.2,2.2,3.6,3.6,6.1,3.6c2.5,0,4.9-1.4,6.1-3.6l22.4-40.3
	C137.4,221.1,136.2,216.9,132.8,215z M171.3,160.2h60.2c3.9,0,7-3.1,7-7s-3.1-7-7-7h-60.2c-3.9,0-7,3.1-7,7S167.5,160.2,171.3,160.2
	z M263.4,114.6h-92.1c-3.9,0-7,3.1-7,7s3.1,7,7,7h92.1c3.9,0,7-3.1,7-7S267.3,114.6,263.4,114.6z"/>
</svg>
