<?xml version="1.0" encoding="utf-8"?>
<!-- Generator: Adobe Illustrator 25.4.1, SVG Export Plug-In . SVG Version: 6.00 Build 0)  -->
<svg version="1.1" id="Layer_1" xmlns="http://www.w3.org/2000/svg" xmlns:xlink="http://www.w3.org/1999/xlink" x="0px" y="0px"
	 viewBox="0 0 122.9 101.9" style="enable-background:new 0 0 122.9 101.9;" xml:space="preserve">
<style type="text/css">
	.st0{fill-rule:evenodd;clip-rule:evenodd;fill:#419C6B;}
</style>
<g>
	<path class="st0" d="M3.3,0h116.2c1.8,0,3.3,1.5,3.3,3.3v77c0,1.8-1.5,3.3-3.3,3.3H3.3c-1.8,0-3.3-1.5-3.3-3.3v-77
		C0,1.5,1.5,0,3.3,0L3.3,0L3.3,0z M46.3,88.3h30.3c0.1,5.2,2.2,9.9,8.1,13.6H38.2C42.9,98.5,46.3,94.4,46.3,88.3L46.3,88.3
		L46.3,88.3z M61.4,72.4c2.4,0,4.3,1.9,4.3,4.3S63.8,81,61.4,81c-2.4,0-4.3-1.9-4.3-4.3C57.2,74.3,59.1,72.4,61.4,72.4L61.4,72.4z
		 M10.1,6.3h102.8c1.6,0,2.9,1.3,2.9,2.9v57.5c0,1.6-1.3,2.9-2.9,2.9H10.1c-1.6,0-2.9-1.3-2.9-2.9V9.2C7.1,7.6,8.4,6.3,10.1,6.3
		L10.1,6.3L10.1,6.3z"/>
</g>
</svg>
