<?xml version="1.0" encoding="utf-8"?>
<!-- Generator: Adobe Illustrator 25.4.1, SVG Export Plug-In . SVG Version: 6.00 Build 0)  -->
<svg version="1.1" id="Layer_1" xmlns="http://www.w3.org/2000/svg" xmlns:xlink="http://www.w3.org/1999/xlink" x="0px" y="0px"
	 viewBox="0 0 512 512" style="enable-background:new 0 0 512 512;" xml:space="preserve">
<style type="text/css">
	.st0{fill:#FFFFFF;}
</style>
<polygon class="st0" points="187.3,163.1 207.8,195.8 245.2,205.2 220.5,234.8 223.1,273.3 187.3,258.9 151.5,273.3 154.1,234.8 
	129.3,205.2 166.8,195.8 "/>
<g>
	<path class="st0" d="M151.5,288.4c-3.1,0-6.2-1-8.9-2.9c-4.2-3-6.5-8-6.2-13.2l2.2-32.5l-20.9-25c-3.3-4-4.4-9.4-2.8-14.3
		c1.6-4.9,5.6-8.7,10.7-10l31.6-7.9l17.3-27.6c2.8-4.4,7.6-7.1,12.8-7.1s10,2.7,12.8,7.1l17.3,27.6l31.6,7.9c5,1.3,9.1,5,10.7,10
		c1.6,4.9,0.6,10.3-2.8,14.3l-20.9,25l2.2,32.5c0.4,5.2-2,10.2-6.2,13.2c-4.2,3-9.7,3.7-14.5,1.8l-30.2-12.1l-30.2,12.1
		C155.3,288,153.4,288.4,151.5,288.4z M156.3,214l9.4,11.2c2.5,3,3.7,6.8,3.5,10.7l-1,14.5l13.5-5.4c3.6-1.4,7.6-1.4,11.2,0
		l13.5,5.4l-1-14.5c-0.3-3.9,1-7.7,3.5-10.7l9.4-11.2l-14.1-3.5c-3.8-0.9-7-3.3-9.1-6.6l-7.7-12.4l-7.7,12.4
		c-2.1,3.3-5.3,5.7-9.1,6.6L156.3,214z"/>
	<path class="st0" d="M382.7,207h-85.8c-8.3,0-15.1-6.7-15.1-15.1s6.7-15.1,15.1-15.1h85.8c8.3,0,15.1,6.7,15.1,15.1
		S391,207,382.7,207z"/>
	<path class="st0" d="M352.5,259.6h-55.7c-8.3,0-15.1-6.7-15.1-15.1s6.7-15.1,15.1-15.1h55.7c8.3,0,15.1,6.7,15.1,15.1
		C367.6,252.9,360.8,259.6,352.5,259.6z"/>
</g>
<polygon class="st0" points="187.3,325.9 207.8,358.6 245.2,368 220.5,397.6 223.1,436.1 187.3,421.7 151.5,436.1 154.1,397.6 
	129.3,368 166.8,358.6 "/>
<g>
	<path class="st0" d="M223.1,451.2c-1.9,0-3.8-0.4-5.6-1.1l-30.2-12.1l-30.2,12.1c-4.8,1.9-10.3,1.3-14.5-1.8c-4.2-3-6.5-8-6.2-13.2
		l2.2-32.5l-20.9-25c-3.3-4-4.4-9.4-2.8-14.3c1.6-4.9,5.6-8.7,10.7-10l31.6-7.9l17.3-27.6c2.8-4.4,7.6-7.1,12.8-7.1s10,2.7,12.8,7.1
		l17.3,27.6l31.6,7.9c5,1.3,9.1,5,10.7,10c1.6,4.9,0.6,10.3-2.8,14.3l-20.9,25l2.2,32.5c0.4,5.2-2,10.2-6.2,13.2
		C229.3,450.2,226.2,451.2,223.1,451.2z M156.3,376.7l9.4,11.2c2.5,3,3.7,6.8,3.5,10.7l-1,14.5l13.5-5.4c3.6-1.5,7.6-1.5,11.2,0
		l13.5,5.4l-1-14.5c-0.3-3.9,1-7.7,3.5-10.7l9.4-11.2l-14.1-3.5c-3.8-0.9-7-3.3-9.1-6.6l-7.7-12.4l-7.7,12.4
		c-2.1,3.3-5.3,5.7-9.1,6.6L156.3,376.7z"/>
	<path class="st0" d="M382.7,369.7h-85.8c-8.3,0-15.1-6.7-15.1-15.1s6.7-15.1,15.1-15.1h85.8c8.3,0,15.1,6.7,15.1,15.1
		S391,369.7,382.7,369.7z"/>
	<path class="st0" d="M352.5,422.4h-55.7c-8.3,0-15.1-6.7-15.1-15.1s6.7-15.1,15.1-15.1h55.7c8.3,0,15.1,6.7,15.1,15.1
		C367.6,415.6,360.8,422.4,352.5,422.4z"/>
</g>
<g>
	<rect x="67.8" y="57.3" class="st0" width="105.4" height="48.1"/>
	<rect x="338.8" y="57.3" class="st0" width="105.4" height="48.1"/>
</g>
<path class="st0" d="M323.8,105.4c0,8.3,6.7,15.1,15.1,15.1h105.4c8.3,0,15.1-6.7,15.1-15.1V57.3c0-8.3-6.7-15.1-15.1-15.1h-90.4
	V15.1c0-8.3-6.7-15.1-15.1-15.1H173.2c-8.3,0-15.1,6.7-15.1,15.1v27.2H67.8c-8.3,0-15.1,6.7-15.1,15.1v48.1v391.5
	c0,8.3,6.7,15.1,15.1,15.1h376.5c8.3,0,15.1-6.7,15.1-15.1v-305c0-8.3-6.7-15.1-15.1-15.1s-15.1,6.7-15.1,15.1v290H82.8V120.5h90.4
	h106c8.3,0,15.1-6.7,15.1-15.1s-6.7-15.1-15.1-15.1h-90.9V57.3V30.1h135.5v27.2L323.8,105.4L323.8,105.4z M82.8,72.3h75.3v18H82.8
	V72.3z M429.2,90.4h-75.3v-18h75.3V90.4z"/>
</svg>
