<?xml version="1.0" encoding="utf-8"?>
<!-- Generator: Adobe Illustrator 25.4.1, SVG Export Plug-In . SVG Version: 6.00 Build 0)  -->
<svg version="1.1" id="Layer_1" xmlns="http://www.w3.org/2000/svg" xmlns:xlink="http://www.w3.org/1999/xlink" x="0px" y="0px"
	 viewBox="0 0 345 218" style="enable-background:new 0 0 345 218;" xml:space="preserve">
<style type="text/css">
	.st0{fill:#FFFFFF;}
</style>
<g>
	<g>
		<path class="st0" d="M172.5,9.8C77.2,9.8,0,87,0,182.3c0,4.1,3.4,7.5,7.5,7.5c3.3,0,132.6,0,135.1,0c3.4,13.4,15.5,23.3,29.9,23.3
			s26.5-9.9,29.9-23.3c2.5,0,131.7,0,135.1,0c4.1,0,7.5-3.4,7.5-7.5C345,87,267.8,9.8,172.5,9.8z M180,25L180,25
			c36.8,1.7,71.2,16,98.4,40.8c-13.3,13.3-13.1,13.1-26.4,26.4c-20-17.7-45.2-28.2-72.1-29.9V25z M165,25v37.3h0
			c-26.4,1.6-51.7,11.8-72.1,29.9c-13.2-13.2-13-13-26.4-26.4C93.8,41,128.2,26.7,165,25z M15.2,174.8c1.7-36.8,16-71.2,40.8-98.4
			l26.4,26.4c-17.2,19.5-28.2,44.4-29.9,72.1L15.2,174.8L15.2,174.8z M172.5,198.2c-8.7,0-15.8-7.1-15.8-15.8
			c0-8.7,7.1-15.8,15.8-15.8c8.6,0,15.8,7.1,15.8,15.8C188.3,191.1,181.2,198.2,172.5,198.2z M197,163.7c-1.8-2.3-3.6-4.1-5.9-5.9
			l19.2-13.4L197,163.7z M207.5,174.8l39-56.1c4.8-6.8-3.6-15.2-10.4-10.4l-62.2,43.2c-14.9-0.7-27.8,9.4-31.3,23.3H67.5
			c3.9-55,49.6-97.8,105-97.8c55.6,0,101.2,43,105,97.8H207.5z M292.5,174.8c-1.6-26.8-12.1-52-29.9-72.1L289,76.4
			c24.8,27.2,39.1,61.7,40.8,98.4H292.5z"/>
	</g>
</g>
</svg>
